<svg width="21" height="19" viewBox="0 0 21 19" fill="none" xmlns="http://www.w3.org/2000/svg">
<g filter="url(#filter0_d_4_178)">
<path d="M16.9118 14.4559C16.9719 14.8435 16.845 15.0076 16.7167 15.0076C16.5885 15.0076 16.4028 14.85 16.1957 14.5373C15.9887 14.2245 15.9179 13.8769 16.0181 13.6986C16.0558 13.6368 16.1167 13.5915 16.1881 13.572C16.2595 13.5525 16.3359 13.5604 16.4015 13.5939C16.7421 13.718 16.8757 14.2233 16.9118 14.4559ZM15.0241 15.3061C15.4343 15.6408 15.5585 16.0389 15.3421 16.3193C15.2762 16.3977 15.1922 16.46 15.0968 16.5013C15.0014 16.5426 14.8974 16.5617 14.793 16.557C14.5642 16.5574 14.3425 16.4801 14.1665 16.3386C13.7951 16.0246 13.6856 15.5142 13.9287 15.2247C13.9824 15.1653 14.0494 15.1186 14.1247 15.0881C14.2 15.0577 14.2814 15.0443 14.3629 15.049C14.6077 15.0569 14.8418 15.1479 15.0241 15.3061ZM14.3402 18.5367C16.1022 18.5367 18.0139 19.1208 20.1313 20.9351C20.3424 21.1161 20.6243 20.8912 20.4399 20.6651C18.3599 18.1258 16.4322 17.6412 14.5178 17.2329C12.172 16.7315 10.9643 15.4535 10.1187 14.0514C9.95167 13.7723 9.87552 13.8214 9.86083 14.1806C9.84679 14.7131 9.88841 15.2456 9.98507 15.7701C9.89022 15.7701 9.79403 15.7701 9.69918 15.7701C8.49698 15.7701 7.32179 15.4252 6.3222 14.7792C5.3226 14.1331 4.54352 13.2148 4.08346 12.1404C3.6234 11.0661 3.50302 9.88385 3.73756 8.7433C3.9721 7.60275 4.55101 6.55509 5.40109 5.7328C6.25117 4.91051 7.33424 4.35053 8.51334 4.12366C9.69244 3.89679 10.9146 4.01322 12.0253 4.45824C13.136 4.90326 14.0853 5.65688 14.7532 6.62379C15.4211 7.5907 15.7776 8.72748 15.7776 9.89037C15.7782 10.1188 15.7653 10.347 15.7389 10.574C15.0985 10.496 14.4514 10.4843 13.8085 10.5391C13.5773 10.5585 13.6107 10.6683 13.7844 10.6929C15.7883 11.043 17.175 12.2435 17.4902 14.4339C17.4914 14.445 17.4961 14.4555 17.5037 14.4638C17.5114 14.4721 17.5215 14.478 17.5328 14.4804C17.544 14.4828 17.5558 14.4818 17.5664 14.4774C17.577 14.473 17.5859 14.4654 17.5918 14.4559C18.6342 12.7703 19.0706 10.7984 18.8329 8.84774C18.5952 6.89709 17.6968 5.07738 16.2778 3.67245C14.8588 2.26752 12.999 1.35636 10.9885 1.08109C8.97799 0.805826 6.92984 1.18193 5.1635 2.15075C3.39717 3.11957 2.01197 4.62662 1.22396 6.43683C0.435958 8.24704 0.289461 10.2586 0.807322 12.1578C1.32518 14.057 2.47828 15.737 4.08676 16.9358C5.69524 18.1346 7.66865 18.7848 9.69918 18.7849C11.0418 18.7887 12.379 18.5355 14.3402 18.5355V18.5367Z" fill="#3E9CDC"/>
</g>
<defs>
<filter id="filter0_d_4_178" x="-3.4968" y="0.993286" width="27.9965" height="28.0078" filterUnits="userSpaceOnUse" color-interpolation-filters="sRGB">
<feFlood flood-opacity="0" result="BackgroundImageFix"/>
<feColorMatrix in="SourceAlpha" type="matrix" values="0 0 0 0 0 0 0 0 0 0 0 0 0 0 0 0 0 0 127 0" result="hardAlpha"/>
<feOffset dy="4"/>
<feGaussianBlur stdDeviation="2"/>
<feComposite in2="hardAlpha" operator="out"/>
<feColorMatrix type="matrix" values="0 0 0 0 0 0 0 0 0 0 0 0 0 0 0 0 0 0 0.25 0"/>
<feBlend mode="normal" in2="BackgroundImageFix" result="effect1_dropShadow_4_178"/>
<feBlend mode="normal" in="SourceGraphic" in2="effect1_dropShadow_4_178" result="shape"/>
</filter>
</defs>
</svg>
